<svg width="117" height="34" viewBox="0 0 117 34" fill="none" xmlns="http://www.w3.org/2000/svg">
<path d="M15.7327 0.524939C16.4326 -0.174979 17.5674 -0.17498 18.2673 0.524938L24.1814 6.43906C24.8813 7.13898 24.8813 8.27377 24.1814 8.97369L18.2673 14.8878C17.5674 15.5877 16.4326 15.5877 15.7327 14.8878L9.81855 8.97369C9.11863 8.27377 9.11863 7.13898 9.81855 6.43907L15.7327 0.524939Z" fill="#78B8FF"/>
<path d="M6.43906 9.81855C7.13897 9.11863 8.27377 9.11863 8.97368 9.81855L14.8878 15.7327C15.5877 16.4326 15.5877 17.5674 14.8878 18.2673L8.97368 24.1814C8.27377 24.8813 7.13898 24.8813 6.43906 24.1814L0.524938 18.2673C-0.174979 17.5674 -0.17498 16.4326 0.524937 15.7327L6.43906 9.81855Z" fill="#70D0D6"/>
<path d="M25.0263 9.81855C25.7262 9.11863 26.861 9.11863 27.5609 9.81855L33.475 15.7327C34.1749 16.4326 34.1749 17.5674 33.475 18.2673L27.5609 24.1814C26.861 24.8813 25.7262 24.8813 25.0263 24.1814L19.1122 18.2673C18.4122 17.5674 18.4122 16.4326 19.1122 15.7327L25.0263 9.81855Z" fill="#A3BFDD"/>
<path d="M15.7327 19.1122C16.4326 18.4123 17.5674 18.4123 18.2673 19.1122L24.1814 25.0263C24.8813 25.7262 24.8813 26.861 24.1814 27.5609L18.2673 33.4751C17.5674 34.175 16.4326 34.175 15.7327 33.4751L9.81855 27.5609C9.11863 26.861 9.11863 25.7262 9.81855 25.0263L15.7327 19.1122Z" fill="#13457D"/>
<path d="M42.6074 6.39137H47.1875L50.6917 27.9084H47.3104L46.6957 23.6358V23.6972H42.8533L42.2386 27.9084H39.1032L42.6074 6.39137ZM46.2961 20.7771L44.7899 10.1415H44.7284L43.2529 20.7771H46.2961Z" fill="#2E8799"/>
<path d="M54.4838 6.39137H57.8651V24.8346H63.4288V27.9084H54.4838V6.39137Z" fill="#2E8799"/>
<path d="M67.202 6.39137H76.4236V9.46524H70.5832V15.1519H75.2248V18.2258H70.5832V24.8346H76.4236V27.9084H67.202V6.39137Z" fill="#2E8799"/>
<path d="M80.5204 6.39137H85.3464L87.4981 21.7914H87.5596L89.7113 6.39137H94.5373V27.9084H91.3405V11.6169H91.279L88.8199 27.9084H85.9919L83.5328 11.6169H83.4714V27.9084H80.5204V6.39137Z" fill="#2E8799"/>
<path d="M103.608 28.2158C101.968 28.2158 100.729 27.7547 99.8884 26.8326C99.0483 25.8899 98.6282 24.5477 98.6282 22.8058V21.5763H101.825V23.0517C101.825 24.4452 102.409 25.142 103.577 25.142C104.151 25.142 104.581 24.978 104.868 24.6501C105.175 24.3018 105.329 23.7485 105.329 22.9903C105.329 22.0886 105.124 21.2996 104.714 20.6234C104.305 19.9266 103.546 19.0967 102.44 18.1335C101.046 16.904 100.073 15.7974 99.5196 14.8138C98.9663 13.8096 98.6896 12.6826 98.6896 11.4325C98.6896 9.73164 99.12 8.42012 99.9807 7.49796C100.841 6.55531 102.091 6.08398 103.731 6.08398C105.35 6.08398 106.569 6.55531 107.389 7.49796C108.229 8.42012 108.649 9.75213 108.649 11.494V12.3854H105.452V11.2788C105.452 10.5411 105.309 10.0083 105.022 9.68041C104.735 9.33204 104.315 9.15785 103.762 9.15785C102.634 9.15785 102.071 9.84435 102.071 11.2173C102.071 11.9961 102.276 12.7235 102.686 13.3998C103.116 14.076 103.884 14.8957 104.991 15.8589C106.405 17.0884 107.378 18.2053 107.911 19.2094C108.444 20.2135 108.71 21.3918 108.71 22.7443C108.71 24.5067 108.27 25.8592 107.389 26.8018C106.528 27.7445 105.268 28.2158 103.608 28.2158Z" fill="#2E8799"/>
<path d="M112.801 6.39137H116.182V27.9084H112.801V6.39137Z" fill="#2E8799"/>
</svg>
