<svg width="20" height="20" viewBox="0 0 20 20" fill="none" xmlns="http://www.w3.org/2000/svg">
<g clip-path="url(#clip0_36_224)">
<path fill-rule="evenodd" clip-rule="evenodd" d="M13.312 2.81345C12.8227 2.45035 12.1283 2.4907 11.6845 2.93448L11.5634 3.07467C11.2004 3.56403 11.2407 4.25847 11.6845 4.70224L15.7318 8.75H1.25L1.08038 8.76141C0.470256 8.84418 0 9.36717 0 10C0 10.6904 0.559644 11.25 1.25 11.25H15.7318L11.6845 15.2978L11.5634 15.438C11.2004 15.9273 11.2407 16.6217 11.6845 17.0655C12.1726 17.5537 12.9641 17.5537 13.4522 17.0655L19.6339 10.8839L19.7549 10.7437C20.118 10.2543 20.0777 9.55989 19.6339 9.11612L13.4522 2.93448L13.312 2.81345Z" fill="white"/>
</g>
<defs>
<clipPath id="clip0_36_224">
<rect width="20" height="20" fill="white"/>
</clipPath>
</defs>
</svg>
