<svg width="46" height="46" viewBox="0 0 46 46" fill="none" xmlns="http://www.w3.org/2000/svg">
<g filter="url(#filter0_bi_90_184)">
<path d="M21.1362 1.70859C21.9202 0.297739 24.0798 0.297739 24.8638 1.70859C29.3988 9.8698 36.1302 16.6012 44.2914 21.1362C45.7023 21.9202 45.7023 24.0798 44.2914 24.8638C36.1302 29.3988 29.3988 36.1302 24.8638 44.2914C24.0798 45.7023 21.9202 45.7023 21.1362 44.2914C16.6012 36.1302 9.8698 29.3988 1.70859 24.8638C0.297739 24.0798 0.297739 21.9202 1.70859 21.1362C9.8698 16.6012 16.6012 9.8698 21.1362 1.70859Z" fill="url(#paint0_linear_90_184)"/>
</g>
<defs>
<filter id="filter0_bi_90_184" x="-9.34955" y="-9.34955" width="64.6991" height="64.6991" filterUnits="userSpaceOnUse" color-interpolation-filters="sRGB">
<feFlood flood-opacity="0" result="BackgroundImageFix"/>
<feGaussianBlur in="BackgroundImageFix" stdDeviation="5"/>
<feComposite in2="SourceAlpha" operator="in" result="effect1_backgroundBlur_90_184"/>
<feBlend mode="normal" in="SourceGraphic" in2="effect1_backgroundBlur_90_184" result="shape"/>
<feColorMatrix in="SourceAlpha" type="matrix" values="0 0 0 0 0 0 0 0 0 0 0 0 0 0 0 0 0 0 127 0" result="hardAlpha"/>
<feOffset/>
<feGaussianBlur stdDeviation="5.25"/>
<feComposite in2="hardAlpha" operator="arithmetic" k2="-1" k3="1"/>
<feColorMatrix type="matrix" values="0 0 0 0 1 0 0 0 0 1 0 0 0 0 1 0 0 0 0.25 0"/>
<feBlend mode="normal" in2="shape" result="effect2_innerShadow_90_184"/>
</filter>
<linearGradient id="paint0_linear_90_184" x1="23" y1="-2" x2="23" y2="48" gradientUnits="userSpaceOnUse">
<stop stop-color="white"/>
<stop offset="1" stop-color="white" stop-opacity="0"/>
</linearGradient>
</defs>
</svg>
